<svg width="22" height="22" viewBox="0 0 22 22" fill="none" xmlns="http://www.w3.org/2000/svg">
<path d="M14.3126 7.16712C10.2389 4.46374 12.0824 1.83334 12.0824 1.83334C8.12221 4.11354 7.24555 7.59381 8.21566 11.9941C6.78885 10.8372 6.58217 9.4672 6.6289 7.66042C4.81212 9.60387 4.48544 11.6606 4.60544 13.8876C4.72031 16.1764 6.01226 18.2421 8.01988 19.3474C10.0273 20.4523 12.464 20.4389 14.4596 19.3116C16.4547 18.1842 17.7238 16.1041 17.8131 13.8141C17.9531 10.904 16.7198 8.76379 14.3128 7.16726L14.3126 7.16712ZM11.6457 18.6345C10.7358 18.6377 9.8457 18.3696 9.08905 17.8643C9.26903 17.882 9.44901 17.8911 9.62898 17.8911C11.1893 17.8841 12.6835 17.2599 13.7852 16.1552C14.8869 15.0503 15.5068 13.5544 15.5094 11.9942C15.5094 11.8142 15.5006 11.6342 15.4827 11.4542V11.454C15.9884 12.2048 16.2598 13.0889 16.2628 13.9941C16.2644 15.2231 15.7779 16.4024 14.9104 17.2726C14.0426 18.1429 12.8646 18.6329 11.6356 18.6345H11.6457Z" fill="white"/>
</svg>
