<svg width="11" height="13" viewBox="0 0 11 13" fill="none" xmlns="http://www.w3.org/2000/svg">
<path d="M4.65137 8.06641L5.85627 8.76206L3.40949 13L2.70722 11.4338L4.65137 8.06641Z" fill="#CE4444"/>
<path d="M4.65137 8.06641L3.44646 7.37075L0.99968 11.6087L2.70722 11.4338L4.65137 8.06641Z" fill="#983535"/>
<path d="M6.37018 8.06641L5.16527 8.76206L7.61205 13L8.31433 11.4338L6.37018 8.06641Z" fill="#983535"/>
<path d="M6.37018 8.06641L7.57508 7.37075L10.0219 11.6087L8.31433 11.4338L6.37018 8.06641Z" fill="#CE4444"/>
<circle cx="5.47345" cy="5.14826" r="4.64826" fill="url(#paint0_linear_2_1043)" stroke="#765C00"/>
<circle cx="5.4743" cy="5.14822" r="3.23809" fill="#A88300"/>
<mask id="mask0_2_1043" style="mask-type:alpha" maskUnits="userSpaceOnUse" x="2" y="2" width="7" height="7">
<circle cx="5.64699" cy="5.49398" r="3.24563" fill="#C28B37"/>
</mask>
<g mask="url(#mask0_2_1043)">
<circle cx="5.47414" cy="5.14828" r="3.24563" fill="#C09525"/>
</g>
<path d="M2.07816 2.89035L2.72206 4.2906L4.00984 4.46564L3.12556 5.54383L3.36595 7.09111L2.07816 6.39098L0.790377 7.09111L1.03291 5.54383L0.146484 4.46564L1.43427 4.2906L2.07816 2.89035Z" fill="url(#paint1_linear_2_1043)"/>
<defs>
<linearGradient id="paint0_linear_2_1043" x1="5.47345" y1="1" x2="5.47345" y2="9.29652" gradientUnits="userSpaceOnUse">
<stop stop-color="#FFC600"/>
<stop offset="1" stop-color="#FFDE69"/>
</linearGradient>
<linearGradient id="paint1_linear_2_1043" x1="2.07816" y1="2.89035" x2="2.07816" y2="7.09111" gradientUnits="userSpaceOnUse">
<stop stop-color="#FFFCDD"/>
<stop offset="1" stop-color="#FFE896"/>
</linearGradient>
</defs>
</svg>
