<svg width="261" height="255" viewBox="0 0 261 255" fill="none" xmlns="http://www.w3.org/2000/svg">
<path d="M4.03076 65.4766C-14.1084 -0.25393 53.0858 -6.94451 101.578 12.9027C129.871 23.1099 148.451 -8.63364 183.5 4.03479C218.55 16.7032 176.533 56.6088 230.162 77.0894C283.792 97.5701 257.611 189.205 210.737 190.261C163.864 191.316 176.744 206.73 129.871 241.99C82.9974 277.251 4.03087 228.266 23.6669 176.537C43.303 124.807 23.6667 136.631 4.03076 65.4766Z" stroke="white" stroke-opacity="0.05" stroke-width="1.09076"/>
<path d="M104.912 116.631C102.819 110.371 112.622 100.271 120.505 104.581C127.723 108.528 135.074 105.866 139.93 107.626C152.714 112.258 148.012 114.71 153.727 120.212C160.681 126.907 164 144.438 148.012 144.438C134.862 144.438 138.797 150.825 128.951 153.654C119.104 156.484 107.938 151.667 107.938 138.986C107.938 134.223 108.398 127.058 104.912 116.631Z" stroke="white" stroke-opacity="0.05" stroke-width="1.09076"/>
<path d="M13.2009 69.8077C-3.47952 9.48352 58.4973 2.48302 103.297 20.9178C129.674 30.5558 147.234 1.4561 179.538 13.1328C212.564 25.0707 173.939 61.5714 223.213 80.6903C272.599 99.9177 249.1 184.816 205.034 185.776C161.227 186.735 173.293 201.328 129.786 233.64C86.2789 265.952 13.476 220.983 31.327 172.803C49.1779 125.344 31.3686 135.441 13.2009 69.8077Z" stroke="white" stroke-opacity="0.05" stroke-width="1.09076"/>
<path d="M22.3711 74.1394C7.14941 19.2216 63.9089 11.9112 105.017 28.9335C129.478 38.0025 146.017 11.5465 175.577 22.2315C206.578 33.4389 171.345 66.5347 216.263 84.2919C261.407 102.266 240.589 180.428 199.331 181.291C158.589 182.155 169.843 195.927 129.701 225.291C89.5605 254.655 22.9212 213.701 38.9871 169.071C55.0529 125.881 39.0706 134.252 22.3711 74.1394Z" stroke="white" stroke-opacity="0.05" stroke-width="1.09076"/>
<path d="M31.5393 78.4709C17.7764 28.9595 69.3185 21.3392 106.735 36.949C129.28 45.4488 144.798 21.6367 171.613 31.33C200.59 41.8068 168.75 71.4978 209.312 87.8932C250.212 104.614 232.076 176.039 193.626 176.807C155.95 177.574 166.39 190.526 129.615 216.942C92.8401 243.357 32.3645 206.418 46.6453 165.338C60.926 126.418 46.7707 133.063 31.5393 78.4709Z" stroke="white" stroke-opacity="0.05" stroke-width="1.09076"/>
<path d="M40.7097 82.802C28.4055 38.697 74.7302 30.7667 108.455 44.9641C129.084 52.8948 143.581 31.7264 167.651 40.428C194.604 50.1743 166.156 76.4604 202.362 91.4942C239.019 106.962 223.565 171.65 187.923 172.322C153.313 172.993 162.94 185.124 129.531 208.592C96.1218 232.059 41.8098 199.136 54.3055 161.605C66.8012 126.955 54.4728 131.874 40.7097 82.802Z" stroke="white" stroke-opacity="0.05" stroke-width="1.09076"/>
<path d="M49.8801 87.3533C39.0347 48.6546 80.1419 40.4144 110.175 53.1994C128.889 60.561 142.364 42.0364 163.69 49.7462C188.619 58.7619 163.563 81.6432 195.413 95.3153C227.827 109.53 215.054 167.481 182.22 168.057C150.676 168.633 159.489 179.943 129.446 200.462C99.4036 220.981 51.2553 192.073 61.9658 158.093C72.6764 127.712 62.175 130.904 49.8801 87.3533Z" stroke="white" stroke-opacity="0.05" stroke-width="1.09076"/>
<path d="M59.0506 92.1648C49.664 58.8724 85.5539 50.3223 111.895 61.6948C128.693 68.4874 141.148 52.6065 159.728 59.3247C182.633 67.6098 160.969 87.0862 188.464 99.3966C216.634 112.358 206.544 163.572 176.517 164.052C148.039 164.532 156.039 175.022 129.362 192.593C102.686 210.164 60.7008 185.271 69.6263 154.84C78.5518 128.729 69.8774 130.195 59.0506 92.1648Z" stroke="white" stroke-opacity="0.05" stroke-width="1.09076"/>
<path d="M68.2214 96.9899C60.2935 69.104 90.966 60.2439 113.616 70.204C128.497 76.4274 139.931 63.1903 155.767 68.9168C176.648 76.4714 158.376 92.5429 181.515 103.492C205.442 115.199 198.033 159.677 170.814 160.061C145.402 160.445 152.589 170.114 129.278 184.737C105.968 199.36 70.1466 178.482 77.287 151.601C84.4274 129.76 77.58 129.5 68.2214 96.9899Z" stroke="white" stroke-opacity="0.05" stroke-width="1.09076"/>
<path d="M77.3926 101.836C70.9234 79.3566 96.3785 70.1867 115.336 78.7343C128.302 84.3886 138.715 73.7953 151.806 78.53C170.663 85.3541 155.784 98.0207 174.566 107.608C194.25 118.062 189.523 155.803 165.112 156.091C142.765 156.379 149.139 165.228 129.195 176.902C109.25 188.577 79.5928 171.714 84.9481 148.383C90.3034 130.811 85.283 128.825 77.3926 101.836Z" stroke="white" stroke-opacity="0.05" stroke-width="1.09076"/>
<path d="M86.5634 106.713C81.553 89.6394 101.791 80.1596 117.057 87.2947C128.107 92.3799 137.499 84.4304 147.845 88.1734C164.678 94.2669 153.191 103.529 167.617 111.754C183.058 120.955 181.013 151.96 159.41 152.152C140.129 152.344 145.689 160.371 129.111 169.098C112.532 177.824 89.0387 164.977 92.6089 145.195C96.1791 131.893 92.9856 128.181 86.5634 106.713Z" stroke="white" stroke-opacity="0.05" stroke-width="1.09076"/>
<path d="M95.7375 111.636C92.1859 99.969 107.206 90.1792 118.781 95.9019C127.915 100.418 136.286 95.1122 143.887 97.8636C158.696 103.227 150.601 109.083 160.672 115.947C171.869 123.895 172.506 148.163 153.71 148.259C137.495 148.355 142.243 155.562 129.03 161.34C115.818 167.118 98.4878 158.286 100.273 142.054C102.058 133.022 100.692 127.583 95.7375 111.636Z" stroke="white" stroke-opacity="0.05" stroke-width="1.09076"/>
</svg>
