<svg width="149" height="50" viewBox="0 0 149 50" fill="none" xmlns="http://www.w3.org/2000/svg">
<path d="M22.5 34L20.8536 35.1355C21.2007 35.6389 21.7591 35.9558 22.3693 35.9957C22.9795 36.0357 23.5744 35.7943 23.9843 35.3405L22.5 34ZM51.4 2L53.2653 1.27847C53.0148 0.630826 52.4463 0.159478 51.7634 0.033296C51.0806 -0.0928857 50.3811 0.144161 49.9157 0.65951L51.4 2ZM69 47.5L67.1347 48.2215C67.4108 48.9353 68.07 49.4289 68.8326 49.493C69.5952 49.557 70.3275 49.1803 70.7188 48.5226L69 47.5ZM92.5 8L94.2934 7.11466C93.9688 6.45729 93.3107 6.03015 92.5781 6.00153C91.8455 5.9729 91.156 6.34737 90.7812 6.97741L92.5 8ZM112 47.5L110.207 48.3853C110.579 49.1387 111.382 49.5793 112.217 49.4882C113.052 49.3971 113.741 48.7938 113.942 47.978L112 47.5ZM120 15L121.088 13.3217C120.545 12.9697 119.865 12.9023 119.263 13.1406C118.662 13.3789 118.213 13.8936 118.058 14.522L120 15ZM145.912 34.1783C146.839 34.7791 148.078 34.5147 148.678 33.5878C149.279 32.6609 149.015 31.4225 148.088 30.8217L145.912 34.1783ZM0.853574 6.13547L20.8536 35.1355L24.1464 32.8645L4.14643 3.86453L0.853574 6.13547ZM23.9843 35.3405L52.8843 3.34049L49.9157 0.65951L21.0157 32.6595L23.9843 35.3405ZM49.5347 2.72153L67.1347 48.2215L70.8653 46.7785L53.2653 1.27847L49.5347 2.72153ZM70.7188 48.5226L94.2188 9.02259L90.7812 6.97741L67.2812 46.4774L70.7188 48.5226ZM90.7066 8.88534L110.207 48.3853L113.793 46.6147L94.2934 7.11466L90.7066 8.88534ZM113.942 47.978L121.942 15.478L118.058 14.522L110.058 47.022L113.942 47.978ZM118.912 16.6783L145.912 34.1783L148.088 30.8217L121.088 13.3217L118.912 16.6783Z" fill="url(#paint0_linear_2_1074)"/>
<defs>
<linearGradient id="paint0_linear_2_1074" x1="-17" y1="3.2629e-05" x2="254" y2="48" gradientUnits="userSpaceOnUse">
<stop stop-color="white"/>
<stop offset="1" stop-color="white" stop-opacity="0"/>
</linearGradient>
</defs>
</svg>
