<svg width="20" height="27" viewBox="0 0 20 27" fill="none" xmlns="http://www.w3.org/2000/svg">
<path d="M13.0905 5.49419C14.4724 5.49419 15.6031 4.42674 15.6031 3.12209C15.6031 1.81744 14.4724 0.75 13.0905 0.75C11.7087 0.75 10.578 1.81744 10.578 3.12209C10.578 4.42674 11.7087 5.49419 13.0905 5.49419ZM9.10819 19.7267L9.82426 16.7616L12.4624 19.1337V25.064C12.4624 25.7163 13.0277 26.25 13.7187 26.25C14.4096 26.25 14.9749 25.7163 14.9749 25.064V18.3747C14.9749 17.7223 14.6986 17.1056 14.1961 16.6549L12.3368 14.9826L13.0905 11.4244C14.5063 12.9524 16.4443 13.9638 18.5679 14.2828C19.3216 14.3895 20 13.8202 20 13.0967C20 12.5156 19.5477 12.0293 18.9322 11.9344C17.0227 11.6379 15.4398 10.5705 14.5981 9.17093L13.3418 7.27326C12.8393 6.56163 12.0855 6.08721 11.2061 6.08721C10.8293 6.08721 10.578 6.20581 10.2011 6.20581L5.20121 8.19837C4.74608 8.38204 4.35816 8.68793 4.08567 9.07804C3.81317 9.46815 3.66813 9.92526 3.66856 10.3926V13.2035C3.66856 13.8558 4.23388 14.3895 4.92483 14.3895C5.61577 14.3895 6.18109 13.8558 6.18109 13.2035V10.357L8.44237 9.52674L6.43234 19.1337L1.50779 18.1849C0.829406 18.0544 0.163586 18.4695 0.0253965 19.11V19.1574C-0.112793 19.7979 0.3269 20.4265 1.00528 20.557L6.16853 21.5295C6.81073 21.6499 7.47732 21.5288 8.02637 21.1921C8.57543 20.8554 8.96358 20.3296 9.10819 19.7267V19.7267Z" fill="white"/>
</svg>
