<svg width="22" height="22" viewBox="0 0 22 22" fill="none" xmlns="http://www.w3.org/2000/svg">
<path d="M16.3579 8.97717L11.2245 1.83334L5.83252 9.62899C5.25626 10.437 4.86609 11.3625 4.69002 12.3391C4.51393 13.3159 4.55626 14.3194 4.81394 15.2778C5.12572 16.4429 5.75173 17.5001 6.62362 18.3336C7.49554 19.167 8.57986 19.7447 9.75792 20.0037C10.2394 20.1111 10.7312 20.1658 11.2245 20.1667C12.3944 20.1695 13.5442 19.8638 14.5579 19.2804C15.5719 18.6969 16.414 17.8563 16.9992 16.8436C17.5845 15.8307 17.8923 14.6814 17.8917 13.5115C17.8917 12.1141 17.3885 10.6067 16.3578 8.97722L16.3579 8.97717ZM11.6973 17.7222C11.4549 17.7222 11.231 17.5929 11.1098 17.3831C10.9887 17.1732 10.9887 16.9146 11.1098 16.7048C11.231 16.4949 11.4549 16.3657 11.6973 16.3657C12.3037 16.3645 12.885 16.1236 13.3144 15.6954C13.7438 15.2671 13.9863 14.6864 13.9889 14.08C13.9889 13.8376 14.1182 13.6137 14.3281 13.4926C14.5379 13.3714 14.7965 13.3714 15.0064 13.4926C15.2164 13.6137 15.3457 13.8376 15.3457 14.08C15.343 15.0463 14.9575 15.972 14.2737 16.6547C13.5899 17.3373 12.6634 17.7212 11.6973 17.7222Z" fill="white"/>
</svg>
