<svg width="22" height="22" viewBox="0 0 22 22" fill="none" xmlns="http://www.w3.org/2000/svg">
<path d="M16.6317 3.20315C14.6735 2.41228 12.5392 2.78366 11.0228 3.99205C9.51095 2.76292 7.36915 2.37211 5.3975 3.1553C2.52222 4.29772 1.09666 7.50359 2.21411 10.3161C2.27303 10.4633 2.34409 10.6239 2.42618 10.7934H5.85976L8.34712 6.82802C8.4078 6.73115 8.51483 6.68194 8.62163 6.68989C8.76683 6.66451 8.91115 6.75035 8.95594 6.89467L11.4839 15.0842L13.7136 11.5272C13.7705 11.437 13.8676 11.3878 13.968 11.3878H13.9746H19.2813C19.4887 11.0166 19.6562 10.6765 19.7747 10.3809C20.908 7.57506 19.5 4.36173 16.6317 3.2031L16.6317 3.20315Z" fill="white"/>
<path d="M16.9763 11.9819H14.1297L11.6593 15.9223C11.6249 15.9941 11.5622 16.0521 11.4803 16.0768C11.3237 16.1262 11.1573 16.038 11.1092 15.8811L8.55692 7.61249L6.27677 11.2489C6.21984 11.3391 6.12208 11.3883 6.02278 11.3875C6.01991 11.3875 6.01792 11.3881 6.01572 11.3881L2.73658 11.3879C4.2389 14.0836 7.76716 18.3566 10.3657 18.9882C12.7946 19.8062 16.9859 15.1426 18.9314 11.9822L16.9763 11.9819Z" fill="white"/>
</svg>
